<svg viewBox="0 0 448 512" fill="none" xmlns="http://www.w3.org/2000/svg">
<path d="M224 256C294.7 256 352 198.7 352 128C352 57.3 294.7 0 224 0C153.3 0 96 57.3 96 128C96 198.7 153.3 256 224 256ZM224 32C276.9 32 320 75.1 320 128C320 180.9 276.9 224 224 224C171.1 224 128 180.9 128 128C128 75.1 171.1 32 224 32ZM315.9 304.2L276.2 442L242.3 340.3L267.3 315.3C277.4 305.2 270.2 288 256 288H192C177.7 288 170.6 305.2 180.7 315.3L205.7 340.3L171.8 442L132.1 304.3C58.9 305.5 0 365 0 438.4V464C0 490.5 21.5 512 48 512H400C426.5 512 448 490.5 448 464V438.4C448 365 389.1 305.5 315.9 304.2ZM48 480C39.2 480 32 472.8 32 464V438.4C32 391.2 64.8 350.9 108.9 339.5L149.5 480H48ZM192.9 480L224 386.6L255.1 480H192.9ZM416 464C416 472.8 408.8 480 400 480H298.5L339 339.5C383.1 350.9 415.9 391.2 415.9 438.4V464H416Z" fill="black"/>
</svg>
