<svg viewBox="0 0 512 448" fill="none" xmlns="http://www.w3.org/2000/svg">
<path d="M508.946 197.147L447.946 147.317V69.9174C447.946 68.3261 447.314 66.8 446.189 65.6748C445.064 64.5496 443.537 63.9174 441.946 63.9174H421.946C420.355 63.9174 418.829 64.5496 417.703 65.6748C416.578 66.8 415.946 68.3261 415.946 69.9174V121.247L276.136 7.12743C270.418 2.51528 263.293 0 255.946 0C248.6 0 241.474 2.51528 235.756 7.12743L2.9461 197.147C1.30404 198.486 0.259751 200.42 0.0422914 202.528C-0.175168 204.635 0.451951 206.742 1.7861 208.387L11.8861 220.797C13.219 222.432 15.1437 223.475 17.2412 223.697C19.3387 223.92 21.4394 223.306 23.0861 221.987L63.9461 188.607V431.607C63.9461 435.851 65.6318 439.921 68.6324 442.921C71.633 445.922 75.7026 447.607 79.9461 447.607H207.946C212.19 447.607 216.259 445.922 219.26 442.921C222.26 439.921 223.946 435.851 223.946 431.607V303.607L287.946 303.907V431.987C287.946 436.231 289.632 440.301 292.632 443.301C295.633 446.302 299.703 447.987 303.946 447.987L431.946 447.657C436.19 447.657 440.259 445.972 443.26 442.971C446.26 439.971 447.946 435.901 447.946 431.657V188.607L488.806 221.987C490.452 223.325 492.562 223.954 494.671 223.736C496.781 223.519 498.718 222.472 500.056 220.827L510.156 208.417C510.819 207.599 511.313 206.657 511.611 205.647C511.908 204.637 512.004 203.578 511.891 202.531C511.779 201.484 511.461 200.47 510.956 199.546C510.45 198.622 509.767 197.807 508.946 197.147V197.147ZM415.836 415.737H415.936L319.936 416.037V287.867C319.923 283.637 318.24 279.582 315.253 276.586C312.266 273.59 308.217 271.894 303.986 271.867L207.986 271.597C205.881 271.591 203.795 272 201.848 272.801C199.901 273.602 198.131 274.78 196.64 276.266C195.149 277.752 193.966 279.518 193.159 281.463C192.352 283.407 191.936 285.492 191.936 287.597V415.737H95.9461V162.497L255.946 31.9274L415.946 162.497L415.836 415.737Z" fill="black"/>
</svg>
