<svg viewBox="0 0 576 512" fill="none" xmlns="http://www.w3.org/2000/svg">
<g clip-path="url(#clip0)">
<path d="M566.819 227.377L462.377 83.768C457.924 77.645 452.085 72.6621 445.339 69.2265C438.592 65.7909 431.128 64 423.557 64H152.443C144.872 63.9999 137.408 65.7908 130.662 69.2264C123.915 72.6621 118.077 77.6449 113.624 83.768L9.181 227.377C3.21401 235.581 -0.000127391 245.465 3.78691e-09 255.609L3.78692e-09 400C3.78692e-09 426.51 21.49 448 48 448H528C554.51 448 576 426.51 576 400V255.609C576 245.465 572.786 235.581 566.819 227.377ZM139.503 102.589C140.99 100.551 142.937 98.892 145.185 97.7472C147.433 96.6024 149.92 96.0038 152.443 96H423.558C428.66 96 433.497 98.463 436.498 102.589L524.796 224H388.223L356.223 288H219.777L187.777 224H51.204L139.503 102.589ZM544 272V400C544 408.823 536.822 416 528 416H48C39.178 416 32 408.823 32 400V272C32 263.163 39.163 256 48 256H168L200 320H376L408 256H528C536.837 256 544 263.163 544 272Z" fill="black"/>
</g>
<defs>
<clipPath id="clip0">
<rect width="576" height="512" fill="white"/>
</clipPath>
</defs>
</svg>
