<svg viewBox="0 0 448 512" fill="none" xmlns="http://www.w3.org/2000/svg">
<path d="M344 240H104C99.6 240 96 243.6 96 248V264C96 268.4 99.6 272 104 272H344C348.4 272 352 268.4 352 264V248C352 243.6 348.4 240 344 240ZM344 336H104C99.6 336 96 339.6 96 344V360C96 364.4 99.6 368 104 368H344C348.4 368 352 364.4 352 360V344C352 339.6 348.4 336 344 336ZM418.1 0C412.3 0 406.3 1.8 400.8 5.7L357.3 37L318.7 9.2C310.3 3.2 300.5 0.1 290.6 0.1C280.8 0.1 271 3.1 262.6 9.2L224 37L185.4 9.2C177 3.2 167.1 0.1 157.3 0.1C147.5 0.1 137.7 3.1 129.3 9.2L90.7 37L47.2 5.7C41.8 1.8 35.8 0 29.9 0C14.4 0.1 0 12.3 0 29.9V482.2C0 499.5 14.3 512 29.9 512C35.7 512 41.7 510.2 47.2 506.3L90.7 475L129.3 502.8C137.7 508.8 147.5 511.9 157.4 511.9C167.2 511.9 177 508.9 185.4 502.8L224 475L262.6 502.8C271 508.8 280.9 511.9 290.7 511.9C300.5 511.9 310.3 508.9 318.7 502.8L357.3 475L400.8 506.3C406.2 510.2 412.2 512 418.1 512C433.6 512 447.9 499.8 447.9 482.2V29.9C448 12.5 433.7 0 418.1 0ZM416 477.8L376 449L357.3 435.5L338.6 449L300 476.8C297.2 478.8 294 479.8 290.7 479.8C287.3 479.8 284.1 478.7 281.3 476.7L242.7 449L224 435.5L205.3 449L166.7 476.8C163.9 478.8 160.7 479.8 157.3 479.8C153.9 479.8 150.7 478.7 147.9 476.7L109.3 449L90.6 435.5L72 449L32 478.4V34.2L72 63L90.7 76.5L109.4 63L148 35.2C150.8 33.2 154 32.2 157.3 32.2C160.7 32.2 163.9 33.3 166.7 35.3L205.3 63L224 76.5L242.7 63L281.3 35.2C284.1 33.2 287.3 32.2 290.7 32.2C294.1 32.2 297.3 33.3 300.1 35.3L338.7 63L357.4 76.5L376 63L416 34.2V477.8ZM344 144H104C99.6 144 96 147.6 96 152V168C96 172.4 99.6 176 104 176H344C348.4 176 352 172.4 352 168V152C352 147.6 348.4 144 344 144Z" fill="black"/>
</svg>
