<svg viewBox="0 0 512 512" fill="none" xmlns="http://www.w3.org/2000/svg">
<g clip-path="url(#clip0)">
<path d="M145.35 207C144.606 206.252 143.722 205.658 142.748 205.253C141.774 204.847 140.73 204.639 139.675 204.639C138.62 204.639 137.576 204.847 136.602 205.253C135.628 205.658 134.743 206.252 134 207L63 278L24 239C22.4998 237.501 20.4658 236.659 18.345 236.659C16.2241 236.659 14.1901 237.501 12.69 239L1.34996 250.34C0.606144 251.083 0.0160719 251.965 -0.386522 252.936C-0.789117 253.908 -0.996338 254.949 -0.996338 256C-0.996338 257.051 -0.789117 258.092 -0.386522 259.064C0.0160719 260.035 0.606144 260.917 1.34996 261.66L57.35 317.66C58.8501 319.159 60.8841 320.001 63.005 320.001C65.1258 320.001 67.1598 319.159 68.66 317.66L156.66 229.66C157.404 228.917 157.994 228.035 158.396 227.064C158.799 226.092 159.006 225.051 159.006 224C159.006 222.949 158.799 221.908 158.396 220.936C157.994 219.965 157.404 219.083 156.66 218.34L145.35 207ZM62.93 384C45.26 384 30.53 398.33 30.53 416C30.53 433.67 45.26 448 62.93 448C71.4169 448 79.5562 444.629 85.5574 438.627C91.5585 432.626 94.93 424.487 94.93 416C94.93 407.513 91.5585 399.374 85.5574 393.373C79.5562 387.371 71.4169 384 62.93 384ZM145.35 47C144.606 46.2517 143.722 45.6578 142.748 45.2526C141.774 44.8473 140.73 44.6387 139.675 44.6387C138.62 44.6387 137.576 44.8473 136.602 45.2526C135.628 45.6578 134.743 46.2517 134 47L63 118L24 79C22.4998 77.5009 20.4658 76.6587 18.345 76.6587C16.2241 76.6587 14.1901 77.5009 12.69 79L1.34996 90.34C0.606144 91.083 0.0160719 91.9653 -0.386522 92.9365C-0.789117 93.9077 -0.996338 94.9487 -0.996338 96C-0.996338 97.0513 -0.789117 98.0924 -0.386522 99.0635C0.0160719 100.035 0.606144 100.917 1.34996 101.66L57.35 157.66C58.8501 159.159 60.8841 160.001 63.005 160.001C65.1258 160.001 67.1598 159.159 68.66 157.66L156.66 69.66C157.404 68.917 157.994 68.0347 158.396 67.0635C158.799 66.0924 159.006 65.0513 159.006 64C159.006 62.9487 158.799 61.9077 158.396 60.9365C157.994 59.9653 157.404 59.083 156.66 58.34L145.35 47ZM503 400H199C196.878 400 194.843 400.843 193.343 402.343C191.843 403.843 191 405.878 191 408V424C191 426.122 191.843 428.157 193.343 429.657C194.843 431.157 196.878 432 199 432H503C505.122 432 507.157 431.157 508.657 429.657C510.157 428.157 511 426.122 511 424V408C511 405.878 510.157 403.843 508.657 402.343C507.157 400.843 505.122 400 503 400ZM503 80H199C196.878 80 194.843 80.8429 193.343 82.3432C191.843 83.8435 191 85.8783 191 88V104C191 106.122 191.843 108.157 193.343 109.657C194.843 111.157 196.878 112 199 112H503C505.122 112 507.157 111.157 508.657 109.657C510.157 108.157 511 106.122 511 104V88C511 85.8783 510.157 83.8435 508.657 82.3432C507.157 80.8429 505.122 80 503 80ZM503 240H199C196.878 240 194.843 240.843 193.343 242.343C191.843 243.843 191 245.878 191 248V264C191 266.122 191.843 268.157 193.343 269.657C194.843 271.157 196.878 272 199 272H503C505.122 272 507.157 271.157 508.657 269.657C510.157 268.157 511 266.122 511 264V248C511 245.878 510.157 243.843 508.657 242.343C507.157 240.843 505.122 240 503 240Z" fill="black"/>
</g>
<defs>
<clipPath id="clip0">
<rect width="512" height="512" fill="white"/>
</clipPath>
</defs>
</svg>
