<svg viewBox="0 0 512 512" fill="none" xmlns="http://www.w3.org/2000/svg">
<g clip-path="url(#clip0)">
<path d="M508.5 481.6L379.5 352.6C377.2 350.3 374.2 349.1 371 349.1H360.7C395 312 416 262.5 416 208C416 93.1 322.9 0 208 0C93.1 0 0 93.1 0 208C0 322.9 93.1 416 208 416C262.5 416 312 395 349.1 360.8V371C349.1 374.2 350.4 377.2 352.6 379.5L481.6 508.5C486.3 513.2 493.9 513.2 498.6 508.5L508.5 498.6C513.2 493.9 513.2 486.3 508.5 481.6ZM208 384C110.7 384 32 305.3 32 208C32 110.7 110.7 32 208 32C305.3 32 384 110.7 384 208C384 305.3 305.3 384 208 384Z" fill="black"/>
</g>
<defs>
<clipPath id="clip0">
<rect width="512" height="512" fill="white"/>
</clipPath>
</defs>
</svg>
