<svg viewBox="0 0 512 512" fill="none" xmlns="http://www.w3.org/2000/svg">
<path d="M256 32C317.8 32 368 82.2 368 144C368 205.8 317.8 256 256 256C194.2 256 144 205.8 144 144C144 82.2 194.2 32 256 32ZM384 352C436.9 352 480 395.1 480 448V480H32V448C32 395.1 75.1 352 128 352C213 352 195.3 368 256 368C316.9 368 298.9 352 384 352ZM256 0C176.5 0 112 64.5 112 144C112 223.5 176.5 288 256 288C335.5 288 400 223.5 400 144C400 64.5 335.5 0 256 0ZM384 320C291.6 320 313 336 256 336C199.2 336 220.3 320 128 320C57.3 320 0 377.3 0 448V480C0 497.7 14.3 512 32 512H480C497.7 512 512 497.7 512 480V448C512 377.3 454.7 320 384 320Z" fill="black"/>
</svg>
